HIERARCHY
ROOT Hips
{
    OFFSET 0.000000 0.000000 0.000000
    CHANNELS 6 Xposition Yposition Zposition Zrotation Xrotation Yrotation
    JOINT Spine
    {
        OFFSET -0.000000 14.517291 0.000000
        CHANNELS 3 Zrotation Xrotation Yrotation
        JOINT Spine1
        {
            OFFSET -0.000000 37.558300 0.000000
            CHANNELS 3 Zrotation Xrotation Yrotation
            JOINT Neck
            {
                OFFSET -0.000000 37.404057 3.400369
                CHANNELS 3 Zrotation Xrotation Yrotation
                JOINT Head
                {
                    OFFSET -0.000000 24.785618 -3.540803
                    CHANNELS 3 Zrotation Xrotation Yrotation
                    End Site
                    {
                        OFFSET -0.000000 35.408028 0.000000
                    }
                }
            }
            JOINT LeftShoulder
            {
                OFFSET 6.992933 33.973492 -0.192664
                CHANNELS 3 Zrotation Xrotation Yrotation
                JOINT LeftArm
                {
                    OFFSET 21.527611 0.000000 0.000000
                    CHANNELS 3 Zrotation Xrotation Yrotation
                    JOINT LeftForeArm
                    {
                        OFFSET 56.353916 0.000000 0.000000
                        CHANNELS 3 Zrotation Xrotation Yrotation
                        JOINT LeftHand
                        {
                            OFFSET 47.774071 0.000000 0.000000
                            CHANNELS 3 Zrotation Xrotation Yrotation
                            End Site
                            {
                                OFFSET 26.556021 0.000000 0.000000
                            }
                        }
                    }
                }
            }
            JOINT RightShoulder
            {
                OFFSET -7.065357 33.973492 -0.192664
                CHANNELS 3 Zrotation Xrotation Yrotation
                JOINT RightArm
                {
                    OFFSET -21.527611 0.000000 0.000000
                    CHANNELS 3 Zrotation Xrotation Yrotation
                    JOINT RightForeArm
                    {
                        OFFSET -56.353916 0.000000 0.000000
                        CHANNELS 3 Zrotation Xrotation Yrotation
                        JOINT RightHand
                        {
                            OFFSET -47.774071 0.000000 0.000000
                            CHANNELS 3 Zrotation Xrotation Yrotation
                            End Site
                            {
                                OFFSET -26.556021 0.000000 0.000000
                            }
                        }
                    }
                }
            }
        }
    }
    JOINT LeftUpLeg
    {
        OFFSET 17.704014 0.000000 0.000000
        CHANNELS 3 Zrotation Xrotation Yrotation
        JOINT LeftLeg
        {
            OFFSET -0.000000 -81.181816 0.000000
            CHANNELS 3 Zrotation Xrotation Yrotation
            JOINT LeftFoot
            {
                OFFSET -0.000000 -62.821102 0.000000
                CHANNELS 3 Zrotation Xrotation Yrotation
                JOINT LeftToeBase
                {
                    OFFSET -0.000000 -11.507608 26.556021
                    CHANNELS 3 Zrotation Xrotation Yrotation
                    End Site
                    {
                        OFFSET -0.000000 0.000000 7.081605
                    }
                }
            }
        }
    }
    JOINT RightUpLeg
    {
        OFFSET -17.704014 0.000000 0.000000
        CHANNELS 3 Zrotation Xrotation Yrotation
        JOINT RightLeg
        {
            OFFSET -0.000000 -81.181816 0.000000
            CHANNELS 3 Zrotation Xrotation Yrotation
            JOINT RightFoot
            {
                OFFSET -0.000000 -62.821102 0.000000
                CHANNELS 3 Zrotation Xrotation Yrotation
                JOINT RightToeBase
                {
                    OFFSET -0.000000 -11.507608 26.556021
                    CHANNELS 3 Zrotation Xrotation Yrotation
                    End Site
                    {
                        OFFSET -0.000000 0.000000 7.081605
                    }
                }
            }
        }
    }
}
MOTION
Frames:    4
Frame Time:    0.008333
7.694002    153.128799    -118.086258    -3.382483    -12.845236    38.388237    -0.119476    -1.042246    -0.597037    -3.105496    4.808958    -0.068160    13.137138    -3.878613    -7.315423    8.868328    10.978624    -9.630140    10.649907    4.619624    -25.885473    -23.156479    19.913387    -75.008652    -12.917733    -7.787494    -77.452179    6.838199    -18.369053    -7.475645    -13.371160    -7.350919    -0.704705    24.542103    -26.811367    70.874855    -3.402817    -6.287659    33.223972    -12.602202    -8.534568    29.070749    11.102029    -9.505634    -4.451409    -18.398727    48.328251    -16.318321    20.942890    -25.034817    49.853344    0.000000    0.000000    0.000000    -14.086196    -19.264832    -12.431734    8.292084    20.232651    -13.918475    10.745448    24.454979    -18.315226    0.000000    0.000000    0.000000    
7.674242    152.949875    -117.841217    -3.407606    -12.866282    38.424641    -0.149299    -1.134578    -0.570334    -3.021122    4.871799    -0.060819    13.077894    -3.877989    -7.359395    8.955413    11.140479    -9.673996    10.586731    4.674437    -25.866505    -23.312283    19.897146    -74.926605    -13.101791    -7.533050    -77.564369    7.113579    -18.300098    -7.378935    -13.393061    -7.241526    -0.749790    24.561975    -26.775208    70.907158    -3.532352    -6.502399    33.307217    -12.497602    -8.670382    28.987686    11.204577    -9.670650    -4.496222    -18.631628    48.823467    -16.062235    21.046602    -25.157436    49.817245    0.000000    0.000000    0.000000    -14.225994    -19.314852    -12.532633    8.201509    19.908253    -14.008994    11.190931    24.755440    -18.623983    0.000000    0.000000    0.000000    
7.670197    152.756485    -117.645172    -3.502735    -12.895177    38.452633    0.041343    -1.170345    -0.511115    -3.165532    4.832699    -0.036939    13.068466    -3.858552    -7.433824    9.057015    11.223388    -9.749997    10.668439    4.735015    -25.832790    -23.305672    20.042049    -74.991478    -13.026769    -7.607339    -77.733841    6.957768    -18.327774    -7.276189    -13.352927    -7.187010    -0.847171    24.571703    -26.716822    70.898506    -3.611754    -6.642897    33.412842    -12.420242    -8.761929    28.977654    11.332420    -9.916441    -4.677305    -19.016134    49.316612    -15.604312    21.092739    -25.433105    49.878674    0.000000    0.000000    0.000000    -14.344649    -19.391176    -12.578032    8.178616    19.580412    -14.266454    11.713264    25.022512    -18.889435    0.000000    0.000000    0.000000    
7.640636    152.571686    -117.424606    -3.620211    -12.927927    38.477001    0.184744    -1.254052    -0.488647    -3.188104    4.848181    -0.028338    13.012230    -3.841371    -7.482141    9.102788    11.268708    -9.789720    10.638994    4.745866    -25.789278    -23.376732    20.088982    -75.179352    -15.663734    -7.185335    -78.461548    14.071298    -20.405413    -5.838842    -13.346270    -7.171215    -0.823756    24.364189    -26.626110    70.753471    -3.820832    -6.802558    33.475353    -12.267550    -8.813991    28.951054    11.531418    -10.151179    -5.006633    -19.685167    49.703590    -15.080096    21.265654    -25.623123    50.133705    0.000000    0.000000    0.000000    -14.409795    -19.481621    -12.722845    8.087901    19.300957    -14.514273    12.121247    25.285259    -19.016663    0.000000    0.000000    0.000000    
